<?xml version="1.0" encoding="UTF-8" standalone="no"?>
<!DOCTYPE svg PUBLIC "-//W3C//DTD SVG 1.1//EN"
 "http://www.w3.org/Graphics/SVG/1.1/DTD/svg11.dtd">
<!-- Generated by graphviz version 2.43.0 (0)
 -->
<!-- Title: Tree Pages: 1 -->
<svg width="1670pt" height="893pt"
 viewBox="0.00 0.00 1670.00 893.00" xmlns="http://www.w3.org/2000/svg" xmlns:xlink="http://www.w3.org/1999/xlink">
<g id="graph0" class="graph" transform="scale(1 1) rotate(0) translate(4 889)">
<title>Tree</title>
<polygon fill="white" stroke="transparent" points="-4,4 -4,-889 1666,-889 1666,4 -4,4"/>
<!-- 0 -->
<g id="node1" class="node">
<title>0</title>
<path fill="#f5d1b7" stroke="black" d="M812,-885C812,-885 614,-885 614,-885 608,-885 602,-879 602,-873 602,-873 602,-829 602,-829 602,-823 608,-817 614,-817 614,-817 812,-817 812,-817 818,-817 824,-823 824,-829 824,-829 824,-873 824,-873 824,-879 818,-885 812,-885"/>
<text text-anchor="start" x="664" y="-869.8" font-family="Helvetica,sans-Serif" font-size="14.00">Store ≤ 0.034</text>
<text text-anchor="start" x="610" y="-854.8" font-family="Helvetica,sans-Serif" font-size="14.00">absolute_error = 463011.279</text>
<text text-anchor="start" x="655.5" y="-839.8" font-family="Helvetica,sans-Serif" font-size="14.00">samples = 4348</text>
<text text-anchor="start" x="640.5" y="-824.8" font-family="Helvetica,sans-Serif" font-size="14.00">value = 940933.085</text>
</g>
<!-- 1 -->
<g id="node2" class="node">
<title>1</title>
<path fill="#e88e4d" stroke="black" d="M692,-773.5C692,-773.5 494,-773.5 494,-773.5 488,-773.5 482,-767.5 482,-761.5 482,-761.5 482,-732.5 482,-732.5 482,-726.5 488,-720.5 494,-720.5 494,-720.5 692,-720.5 692,-720.5 698,-720.5 704,-726.5 704,-732.5 704,-732.5 704,-761.5 704,-761.5 704,-767.5 698,-773.5 692,-773.5"/>
<text text-anchor="start" x="490" y="-758.3" font-family="Helvetica,sans-Serif" font-size="14.00">absolute_error = 196264.979</text>
<text text-anchor="start" x="540" y="-743.3" font-family="Helvetica,sans-Serif" font-size="14.00">samples = 209</text>
<text text-anchor="start" x="520.5" y="-728.3" font-family="Helvetica,sans-Serif" font-size="14.00">value = 1744725.48</text>
</g>
<!-- 0&#45;&gt;1 -->
<g id="edge1" class="edge">
<title>0&#45;&gt;1</title>
<path fill="none" stroke="black" d="M674.04,-816.88C660.2,-805.12 644.64,-791.89 630.89,-780.2"/>
<polygon fill="black" stroke="black" points="632.91,-777.33 623.02,-773.52 628.38,-782.66 632.91,-777.33"/>
<text text-anchor="middle" x="625.04" y="-794.74" font-family="Helvetica,sans-Serif" font-size="14.00">True</text>
</g>
<!-- 2 -->
<g id="node3" class="node">
<title>2</title>
<path fill="#f6d4bb" stroke="black" d="M932,-781C932,-781 734,-781 734,-781 728,-781 722,-775 722,-769 722,-769 722,-725 722,-725 722,-719 728,-713 734,-713 734,-713 932,-713 932,-713 938,-713 944,-719 944,-725 944,-725 944,-769 944,-769 944,-775 938,-781 932,-781"/>
<text text-anchor="start" x="788.5" y="-765.8" font-family="Helvetica,sans-Serif" font-size="14.00">Store ≤ 0.92</text>
<text text-anchor="start" x="730" y="-750.8" font-family="Helvetica,sans-Serif" font-size="14.00">absolute_error = 445299.418</text>
<text text-anchor="start" x="775.5" y="-735.8" font-family="Helvetica,sans-Serif" font-size="14.00">samples = 4139</text>
<text text-anchor="start" x="765" y="-720.8" font-family="Helvetica,sans-Serif" font-size="14.00">value = 903882.96</text>
</g>
<!-- 0&#45;&gt;2 -->
<g id="edge2" class="edge">
<title>0&#45;&gt;2</title>
<path fill="none" stroke="black" d="M751.96,-816.88C762.86,-807.62 774.82,-797.45 786.12,-787.85"/>
<polygon fill="black" stroke="black" points="788.47,-790.44 793.82,-781.3 783.94,-785.11 788.47,-790.44"/>
<text text-anchor="middle" x="791.8" y="-802.52" font-family="Helvetica,sans-Serif" font-size="14.00">False</text>
</g>
<!-- 3 -->
<g id="node4" class="node">
<title>3</title>
<path fill="#f5ceb3" stroke="black" d="M812,-677C812,-677 614,-677 614,-677 608,-677 602,-671 602,-665 602,-665 602,-621 602,-621 602,-615 608,-609 614,-609 614,-609 812,-609 812,-609 818,-609 824,-615 824,-621 824,-621 824,-665 824,-665 824,-671 818,-677 812,-677"/>
<text text-anchor="start" x="664" y="-661.8" font-family="Helvetica,sans-Serif" font-size="14.00">Store ≤ 0.102</text>
<text text-anchor="start" x="610" y="-646.8" font-family="Helvetica,sans-Serif" font-size="14.00">absolute_error = 453636.167</text>
<text text-anchor="start" x="655.5" y="-631.8" font-family="Helvetica,sans-Serif" font-size="14.00">samples = 3716</text>
<text text-anchor="start" x="649.5" y="-616.8" font-family="Helvetica,sans-Serif" font-size="14.00">value = 971488.5</text>
</g>
<!-- 2&#45;&gt;3 -->
<g id="edge3" class="edge">
<title>2&#45;&gt;3</title>
<path fill="none" stroke="black" d="M794.04,-712.88C783.14,-703.62 771.18,-693.45 759.88,-683.85"/>
<polygon fill="black" stroke="black" points="762.06,-681.11 752.18,-677.3 757.53,-686.44 762.06,-681.11"/>
</g>
<!-- 26 -->
<g id="node27" class="node">
<title>26</title>
<path fill="#fbede2" stroke="black" d="M1052,-677C1052,-677 854,-677 854,-677 848,-677 842,-671 842,-665 842,-665 842,-621 842,-621 842,-615 848,-609 854,-609 854,-609 1052,-609 1052,-609 1058,-609 1064,-615 1064,-621 1064,-621 1064,-665 1064,-665 1064,-671 1058,-677 1052,-677"/>
<text text-anchor="start" x="919.5" y="-661.8" font-family="Helvetica,sans-Serif" font-size="14.00">CPI ≤ 0.3</text>
<text text-anchor="start" x="850" y="-646.8" font-family="Helvetica,sans-Serif" font-size="14.00">absolute_error = 143922.581</text>
<text text-anchor="start" x="900" y="-631.8" font-family="Helvetica,sans-Serif" font-size="14.00">samples = 423</text>
<text text-anchor="start" x="885" y="-616.8" font-family="Helvetica,sans-Serif" font-size="14.00">value = 606309.13</text>
</g>
<!-- 2&#45;&gt;26 -->
<g id="edge26" class="edge">
<title>2&#45;&gt;26</title>
<path fill="none" stroke="black" d="M871.96,-712.88C882.86,-703.62 894.82,-693.45 906.12,-683.85"/>
<polygon fill="black" stroke="black" points="908.47,-686.44 913.82,-677.3 903.94,-681.11 908.47,-686.44"/>
</g>
<!-- 4 -->
<g id="node5" class="node">
<title>4</title>
<path fill="#ffffff" stroke="black" d="M572,-565.5C572,-565.5 374,-565.5 374,-565.5 368,-565.5 362,-559.5 362,-553.5 362,-553.5 362,-524.5 362,-524.5 362,-518.5 368,-512.5 374,-512.5 374,-512.5 572,-512.5 572,-512.5 578,-512.5 584,-518.5 584,-524.5 584,-524.5 584,-553.5 584,-553.5 584,-559.5 578,-565.5 572,-565.5"/>
<text text-anchor="start" x="370" y="-550.3" font-family="Helvetica,sans-Serif" font-size="14.00">absolute_error = 438857.589</text>
<text text-anchor="start" x="420" y="-535.3" font-family="Helvetica,sans-Serif" font-size="14.00">samples = 288</text>
<text text-anchor="start" x="405" y="-520.3" font-family="Helvetica,sans-Serif" font-size="14.00">value = 387870.29</text>
</g>
<!-- 3&#45;&gt;4 -->
<g id="edge4" class="edge">
<title>3&#45;&gt;4</title>
<path fill="none" stroke="black" d="M635.08,-608.88C605.19,-596.18 571.31,-581.78 542.29,-569.45"/>
<polygon fill="black" stroke="black" points="543.62,-566.21 533.05,-565.52 540.88,-572.65 543.62,-566.21"/>
</g>
<!-- 5 -->
<g id="node6" class="node">
<title>5</title>
<path fill="#f5ccaf" stroke="black" d="M812,-573C812,-573 614,-573 614,-573 608,-573 602,-567 602,-561 602,-561 602,-517 602,-517 602,-511 608,-505 614,-505 614,-505 812,-505 812,-505 818,-505 824,-511 824,-517 824,-517 824,-561 824,-561 824,-567 818,-573 812,-573"/>
<text text-anchor="start" x="664" y="-557.8" font-family="Helvetica,sans-Serif" font-size="14.00">Store ≤ 0.307</text>
<text text-anchor="start" x="610" y="-542.8" font-family="Helvetica,sans-Serif" font-size="14.00">absolute_error = 431549.418</text>
<text text-anchor="start" x="655.5" y="-527.8" font-family="Helvetica,sans-Serif" font-size="14.00">samples = 3428</text>
<text text-anchor="start" x="645" y="-512.8" font-family="Helvetica,sans-Serif" font-size="14.00">value = 996676.19</text>
</g>
<!-- 3&#45;&gt;5 -->
<g id="edge5" class="edge">
<title>3&#45;&gt;5</title>
<path fill="none" stroke="black" d="M713,-608.88C713,-600.78 713,-591.98 713,-583.47"/>
<polygon fill="black" stroke="black" points="716.5,-583.3 713,-573.3 709.5,-583.3 716.5,-583.3"/>
</g>
<!-- 6 -->
<g id="node7" class="node">
<title>6</title>
<path fill="#eeaa7a" stroke="black" d="M691,-469C691,-469 493,-469 493,-469 487,-469 481,-463 481,-457 481,-457 481,-413 481,-413 481,-407 487,-401 493,-401 493,-401 691,-401 691,-401 697,-401 703,-407 703,-413 703,-413 703,-457 703,-457 703,-463 697,-469 691,-469"/>
<text text-anchor="start" x="543" y="-453.8" font-family="Helvetica,sans-Serif" font-size="14.00">Store ≤ 0.193</text>
<text text-anchor="start" x="489" y="-438.8" font-family="Helvetica,sans-Serif" font-size="14.00">absolute_error = 508968.284</text>
<text text-anchor="start" x="539" y="-423.8" font-family="Helvetica,sans-Serif" font-size="14.00">samples = 849</text>
<text text-anchor="start" x="519.5" y="-408.8" font-family="Helvetica,sans-Serif" font-size="14.00">value = 1403198.94</text>
</g>
<!-- 5&#45;&gt;6 -->
<g id="edge6" class="edge">
<title>5&#45;&gt;6</title>
<path fill="none" stroke="black" d="M673.71,-504.88C662.73,-495.62 650.67,-485.45 639.27,-475.85"/>
<polygon fill="black" stroke="black" points="641.4,-473.07 631.5,-469.3 636.89,-478.42 641.4,-473.07"/>
</g>
<!-- 13 -->
<g id="node14" class="node">
<title>13</title>
<path fill="#f5d0b4" stroke="black" d="M933,-469C933,-469 735,-469 735,-469 729,-469 723,-463 723,-457 723,-457 723,-413 723,-413 723,-407 729,-401 735,-401 735,-401 933,-401 933,-401 939,-401 945,-407 945,-413 945,-413 945,-457 945,-457 945,-463 939,-469 933,-469"/>
<text text-anchor="start" x="785" y="-453.8" font-family="Helvetica,sans-Serif" font-size="14.00">Store ≤ 0.352</text>
<text text-anchor="start" x="731" y="-438.8" font-family="Helvetica,sans-Serif" font-size="14.00">absolute_error = 380042.038</text>
<text text-anchor="start" x="776.5" y="-423.8" font-family="Helvetica,sans-Serif" font-size="14.00">samples = 2579</text>
<text text-anchor="start" x="766" y="-408.8" font-family="Helvetica,sans-Serif" font-size="14.00">value = 957356.84</text>
</g>
<!-- 5&#45;&gt;13 -->
<g id="edge13" class="edge">
<title>5&#45;&gt;13</title>
<path fill="none" stroke="black" d="M752.29,-504.88C763.27,-495.62 775.33,-485.45 786.73,-475.85"/>
<polygon fill="black" stroke="black" points="789.11,-478.42 794.5,-469.3 784.6,-473.07 789.11,-478.42"/>
</g>
<!-- 7 -->
<g id="node8" class="node">
<title>7</title>
<path fill="#f8dfcd" stroke="black" d="M450,-365C450,-365 252,-365 252,-365 246,-365 240,-359 240,-353 240,-353 240,-309 240,-309 240,-303 246,-297 252,-297 252,-297 450,-297 450,-297 456,-297 462,-303 462,-309 462,-309 462,-353 462,-353 462,-359 456,-365 450,-365"/>
<text text-anchor="start" x="308.5" y="-349.8" font-family="Helvetica,sans-Serif" font-size="14.00">CPI ≤ 0.885</text>
<text text-anchor="start" x="248" y="-334.8" font-family="Helvetica,sans-Serif" font-size="14.00">absolute_error = 345489.051</text>
<text text-anchor="start" x="298" y="-319.8" font-family="Helvetica,sans-Serif" font-size="14.00">samples = 435</text>
<text text-anchor="start" x="283" y="-304.8" font-family="Helvetica,sans-Serif" font-size="14.00">value = 772539.12</text>
</g>
<!-- 6&#45;&gt;7 -->
<g id="edge7" class="edge">
<title>6&#45;&gt;7</title>
<path fill="none" stroke="black" d="M513.75,-400.88C489.75,-390.72 463.17,-379.48 438.58,-369.07"/>
<polygon fill="black" stroke="black" points="439.84,-365.8 429.27,-365.12 437.11,-372.25 439.84,-365.8"/>
</g>
<!-- 10 -->
<g id="node11" class="node">
<title>10</title>
<path fill="#e68641" stroke="black" d="M691,-365C691,-365 493,-365 493,-365 487,-365 481,-359 481,-353 481,-353 481,-309 481,-309 481,-303 487,-297 493,-297 493,-297 691,-297 691,-297 697,-297 703,-303 703,-309 703,-309 703,-353 703,-353 703,-359 697,-365 691,-365"/>
<text text-anchor="start" x="549.5" y="-349.8" font-family="Helvetica,sans-Serif" font-size="14.00">CPI ≤ 0.562</text>
<text text-anchor="start" x="489" y="-334.8" font-family="Helvetica,sans-Serif" font-size="14.00">absolute_error = 245551.474</text>
<text text-anchor="start" x="539" y="-319.8" font-family="Helvetica,sans-Serif" font-size="14.00">samples = 414</text>
<text text-anchor="start" x="515" y="-304.8" font-family="Helvetica,sans-Serif" font-size="14.00">value = 1837546.965</text>
</g>
<!-- 6&#45;&gt;10 -->
<g id="edge10" class="edge">
<title>6&#45;&gt;10</title>
<path fill="none" stroke="black" d="M592,-400.88C592,-392.78 592,-383.98 592,-375.47"/>
<polygon fill="black" stroke="black" points="595.5,-375.3 592,-365.3 588.5,-375.3 595.5,-375.3"/>
</g>
<!-- 8 -->
<g id="node9" class="node">
<title>8</title>
<path fill="#fbece2" stroke="black" d="M210,-253.5C210,-253.5 12,-253.5 12,-253.5 6,-253.5 0,-247.5 0,-241.5 0,-241.5 0,-212.5 0,-212.5 0,-206.5 6,-200.5 12,-200.5 12,-200.5 210,-200.5 210,-200.5 216,-200.5 222,-206.5 222,-212.5 222,-212.5 222,-241.5 222,-241.5 222,-247.5 216,-253.5 210,-253.5"/>
<text text-anchor="start" x="8" y="-238.3" font-family="Helvetica,sans-Serif" font-size="14.00">absolute_error = 280026.299</text>
<text text-anchor="start" x="58" y="-223.3" font-family="Helvetica,sans-Serif" font-size="14.00">samples = 230</text>
<text text-anchor="start" x="43" y="-208.3" font-family="Helvetica,sans-Serif" font-size="14.00">value = 610045.36</text>
</g>
<!-- 7&#45;&gt;8 -->
<g id="edge8" class="edge">
<title>7&#45;&gt;8</title>
<path fill="none" stroke="black" d="M273.08,-296.88C243.19,-284.18 209.31,-269.78 180.29,-257.45"/>
<polygon fill="black" stroke="black" points="181.62,-254.21 171.05,-253.52 178.88,-260.65 181.62,-254.21"/>
</g>
<!-- 9 -->
<g id="node10" class="node">
<title>9</title>
<path fill="#f6d4bc" stroke="black" d="M450,-253.5C450,-253.5 252,-253.5 252,-253.5 246,-253.5 240,-247.5 240,-241.5 240,-241.5 240,-212.5 240,-212.5 240,-206.5 246,-200.5 252,-200.5 252,-200.5 450,-200.5 450,-200.5 456,-200.5 462,-206.5 462,-212.5 462,-212.5 462,-241.5 462,-241.5 462,-247.5 456,-253.5 450,-253.5"/>
<text text-anchor="start" x="248" y="-238.3" font-family="Helvetica,sans-Serif" font-size="14.00">absolute_error = 357536.031</text>
<text text-anchor="start" x="298" y="-223.3" font-family="Helvetica,sans-Serif" font-size="14.00">samples = 205</text>
<text text-anchor="start" x="283" y="-208.3" font-family="Helvetica,sans-Serif" font-size="14.00">value = 899449.65</text>
</g>
<!-- 7&#45;&gt;9 -->
<g id="edge9" class="edge">
<title>7&#45;&gt;9</title>
<path fill="none" stroke="black" d="M351,-296.88C351,-286.33 351,-274.6 351,-263.85"/>
<polygon fill="black" stroke="black" points="354.5,-263.52 351,-253.52 347.5,-263.52 354.5,-263.52"/>
</g>
<!-- 11 -->
<g id="node12" class="node">
<title>11</title>
<path fill="#e58139" stroke="black" d="M690,-253.5C690,-253.5 492,-253.5 492,-253.5 486,-253.5 480,-247.5 480,-241.5 480,-241.5 480,-212.5 480,-212.5 480,-206.5 486,-200.5 492,-200.5 492,-200.5 690,-200.5 690,-200.5 696,-200.5 702,-206.5 702,-212.5 702,-212.5 702,-241.5 702,-241.5 702,-247.5 696,-253.5 690,-253.5"/>
<text text-anchor="start" x="488" y="-238.3" font-family="Helvetica,sans-Serif" font-size="14.00">absolute_error = 152423.464</text>
<text text-anchor="start" x="538" y="-223.3" font-family="Helvetica,sans-Serif" font-size="14.00">samples = 240</text>
<text text-anchor="start" x="518.5" y="-208.3" font-family="Helvetica,sans-Serif" font-size="14.00">value = 1900170.09</text>
</g>
<!-- 10&#45;&gt;11 -->
<g id="edge11" class="edge">
<title>10&#45;&gt;11</title>
<path fill="none" stroke="black" d="M591.68,-296.88C591.57,-286.33 591.46,-274.6 591.35,-263.85"/>
<polygon fill="black" stroke="black" points="594.85,-263.49 591.25,-253.52 587.85,-263.55 594.85,-263.49"/>
</g>
<!-- 12 -->
<g id="node13" class="node">
<title>12</title>
<path fill="#eda876" stroke="black" d="M930,-253.5C930,-253.5 732,-253.5 732,-253.5 726,-253.5 720,-247.5 720,-241.5 720,-241.5 720,-212.5 720,-212.5 720,-206.5 726,-200.5 732,-200.5 732,-200.5 930,-200.5 930,-200.5 936,-200.5 942,-206.5 942,-212.5 942,-212.5 942,-241.5 942,-241.5 942,-247.5 936,-253.5 930,-253.5"/>
<text text-anchor="start" x="728" y="-238.3" font-family="Helvetica,sans-Serif" font-size="14.00">absolute_error = 271390.604</text>
<text text-anchor="start" x="778" y="-223.3" font-family="Helvetica,sans-Serif" font-size="14.00">samples = 174</text>
<text text-anchor="start" x="754" y="-208.3" font-family="Helvetica,sans-Serif" font-size="14.00">value = 1434287.905</text>
</g>
<!-- 10&#45;&gt;12 -->
<g id="edge12" class="edge">
<title>10&#45;&gt;12</title>
<path fill="none" stroke="black" d="M669.6,-296.88C699.36,-284.18 733.1,-269.78 762,-257.45"/>
<polygon fill="black" stroke="black" points="763.38,-260.66 771.2,-253.52 760.63,-254.23 763.38,-260.66"/>
</g>
<!-- 14 -->
<g id="node15" class="node">
<title>14</title>
<path fill="#fcf0e8" stroke="black" d="M928.5,-357.5C928.5,-357.5 739.5,-357.5 739.5,-357.5 733.5,-357.5 727.5,-351.5 727.5,-345.5 727.5,-345.5 727.5,-316.5 727.5,-316.5 727.5,-310.5 733.5,-304.5 739.5,-304.5 739.5,-304.5 928.5,-304.5 928.5,-304.5 934.5,-304.5 940.5,-310.5 940.5,-316.5 940.5,-316.5 940.5,-345.5 940.5,-345.5 940.5,-351.5 934.5,-357.5 928.5,-357.5"/>
<text text-anchor="start" x="735.5" y="-342.3" font-family="Helvetica,sans-Serif" font-size="14.00">absolute_error = 72913.769</text>
<text text-anchor="start" x="781" y="-327.3" font-family="Helvetica,sans-Serif" font-size="14.00">samples = 212</text>
<text text-anchor="start" x="766" y="-312.3" font-family="Helvetica,sans-Serif" font-size="14.00">value = 565090.37</text>
</g>
<!-- 13&#45;&gt;14 -->
<g id="edge14" class="edge">
<title>13&#45;&gt;14</title>
<path fill="none" stroke="black" d="M834,-400.88C834,-390.33 834,-378.6 834,-367.85"/>
<polygon fill="black" stroke="black" points="837.5,-367.52 834,-357.52 830.5,-367.52 837.5,-367.52"/>
</g>
<!-- 15 -->
<g id="node16" class="node">
<title>15</title>
<path fill="#f5cdb0" stroke="black" d="M1170,-365C1170,-365 972,-365 972,-365 966,-365 960,-359 960,-353 960,-353 960,-309 960,-309 960,-303 966,-297 972,-297 972,-297 1170,-297 1170,-297 1176,-297 1182,-303 1182,-309 1182,-309 1182,-353 1182,-353 1182,-359 1176,-365 1170,-365"/>
<text text-anchor="start" x="1028.5" y="-349.8" font-family="Helvetica,sans-Serif" font-size="14.00">CPI ≤ 0.808</text>
<text text-anchor="start" x="968" y="-334.8" font-family="Helvetica,sans-Serif" font-size="14.00">absolute_error = 376984.243</text>
<text text-anchor="start" x="1013.5" y="-319.8" font-family="Helvetica,sans-Serif" font-size="14.00">samples = 2367</text>
<text text-anchor="start" x="1003" y="-304.8" font-family="Helvetica,sans-Serif" font-size="14.00">value = 991969.37</text>
</g>
<!-- 13&#45;&gt;15 -->
<g id="edge15" class="edge">
<title>13&#45;&gt;15</title>
<path fill="none" stroke="black" d="M910.95,-400.88C934.45,-390.77 960.46,-379.58 984.55,-369.21"/>
<polygon fill="black" stroke="black" points="986.23,-372.29 994.03,-365.12 983.46,-365.86 986.23,-372.29"/>
</g>
<!-- 16 -->
<g id="node17" class="node">
<title>16</title>
<path fill="#f4c8a9" stroke="black" d="M1170,-261C1170,-261 972,-261 972,-261 966,-261 960,-255 960,-249 960,-249 960,-205 960,-205 960,-199 966,-193 972,-193 972,-193 1170,-193 1170,-193 1176,-193 1182,-199 1182,-205 1182,-205 1182,-249 1182,-249 1182,-255 1176,-261 1170,-261"/>
<text text-anchor="start" x="1028.5" y="-245.8" font-family="Helvetica,sans-Serif" font-size="14.00">CPI ≤ 0.052</text>
<text text-anchor="start" x="968" y="-230.8" font-family="Helvetica,sans-Serif" font-size="14.00">absolute_error = 319422.317</text>
<text text-anchor="start" x="1013.5" y="-215.8" font-family="Helvetica,sans-Serif" font-size="14.00">samples = 1605</text>
<text text-anchor="start" x="998.5" y="-200.8" font-family="Helvetica,sans-Serif" font-size="14.00">value = 1045722.37</text>
</g>
<!-- 15&#45;&gt;16 -->
<g id="edge16" class="edge">
<title>15&#45;&gt;16</title>
<path fill="none" stroke="black" d="M1071,-296.88C1071,-288.78 1071,-279.98 1071,-271.47"/>
<polygon fill="black" stroke="black" points="1074.5,-271.3 1071,-261.3 1067.5,-271.3 1074.5,-271.3"/>
</g>
<!-- 21 -->
<g id="node22" class="node">
<title>21</title>
<path fill="#fae5d7" stroke="black" d="M1410,-261C1410,-261 1212,-261 1212,-261 1206,-261 1200,-255 1200,-249 1200,-249 1200,-205 1200,-205 1200,-199 1206,-193 1212,-193 1212,-193 1410,-193 1410,-193 1416,-193 1422,-199 1422,-205 1422,-205 1422,-249 1422,-249 1422,-255 1416,-261 1410,-261"/>
<text text-anchor="start" x="1262" y="-245.8" font-family="Helvetica,sans-Serif" font-size="14.00">Store ≤ 0.739</text>
<text text-anchor="start" x="1208" y="-230.8" font-family="Helvetica,sans-Serif" font-size="14.00">absolute_error = 431389.929</text>
<text text-anchor="start" x="1258" y="-215.8" font-family="Helvetica,sans-Serif" font-size="14.00">samples = 762</text>
<text text-anchor="start" x="1243" y="-200.8" font-family="Helvetica,sans-Serif" font-size="14.00">value = 696378.62</text>
</g>
<!-- 15&#45;&gt;21 -->
<g id="edge21" class="edge">
<title>15&#45;&gt;21</title>
<path fill="none" stroke="black" d="M1148.92,-296.88C1172.83,-286.72 1199.29,-275.48 1223.78,-265.07"/>
<polygon fill="black" stroke="black" points="1225.23,-268.26 1233.06,-261.12 1222.49,-261.82 1225.23,-268.26"/>
</g>
<!-- 17 -->
<g id="node18" class="node">
<title>17</title>
<path fill="#f7d8c2" stroke="black" d="M930,-149.5C930,-149.5 732,-149.5 732,-149.5 726,-149.5 720,-143.5 720,-137.5 720,-137.5 720,-108.5 720,-108.5 720,-102.5 726,-96.5 732,-96.5 732,-96.5 930,-96.5 930,-96.5 936,-96.5 942,-102.5 942,-108.5 942,-108.5 942,-137.5 942,-137.5 942,-143.5 936,-149.5 930,-149.5"/>
<text text-anchor="start" x="728" y="-134.3" font-family="Helvetica,sans-Serif" font-size="14.00">absolute_error = 284813.185</text>
<text text-anchor="start" x="778" y="-119.3" font-family="Helvetica,sans-Serif" font-size="14.00">samples = 338</text>
<text text-anchor="start" x="763" y="-104.3" font-family="Helvetica,sans-Serif" font-size="14.00">value = 851612.09</text>
</g>
<!-- 16&#45;&gt;17 -->
<g id="edge17" class="edge">
<title>16&#45;&gt;17</title>
<path fill="none" stroke="black" d="M993.08,-192.88C963.19,-180.18 929.31,-165.78 900.29,-153.45"/>
<polygon fill="black" stroke="black" points="901.62,-150.21 891.05,-149.52 898.88,-156.65 901.62,-150.21"/>
</g>
<!-- 18 -->
<g id="node19" class="node">
<title>18</title>
<path fill="#f2c19e" stroke="black" d="M1170,-157C1170,-157 972,-157 972,-157 966,-157 960,-151 960,-145 960,-145 960,-101 960,-101 960,-95 966,-89 972,-89 972,-89 1170,-89 1170,-89 1176,-89 1182,-95 1182,-101 1182,-101 1182,-145 1182,-145 1182,-151 1176,-157 1170,-157"/>
<text text-anchor="start" x="986.5" y="-141.8" font-family="Helvetica,sans-Serif" font-size="14.00">Unemployment ≤ 0.617</text>
<text text-anchor="start" x="968" y="-126.8" font-family="Helvetica,sans-Serif" font-size="14.00">absolute_error = 293826.622</text>
<text text-anchor="start" x="1013.5" y="-111.8" font-family="Helvetica,sans-Serif" font-size="14.00">samples = 1267</text>
<text text-anchor="start" x="998.5" y="-96.8" font-family="Helvetica,sans-Serif" font-size="14.00">value = 1132433.55</text>
</g>
<!-- 16&#45;&gt;18 -->
<g id="edge18" class="edge">
<title>16&#45;&gt;18</title>
<path fill="none" stroke="black" d="M1071,-192.88C1071,-184.78 1071,-175.98 1071,-167.47"/>
<polygon fill="black" stroke="black" points="1074.5,-167.3 1071,-157.3 1067.5,-167.3 1074.5,-167.3"/>
</g>
<!-- 19 -->
<g id="node20" class="node">
<title>19</title>
<path fill="#f0b78f" stroke="black" d="M931,-53C931,-53 733,-53 733,-53 727,-53 721,-47 721,-41 721,-41 721,-12 721,-12 721,-6 727,0 733,0 733,0 931,0 931,0 937,0 943,-6 943,-12 943,-12 943,-41 943,-41 943,-47 937,-53 931,-53"/>
<text text-anchor="start" x="729" y="-37.8" font-family="Helvetica,sans-Serif" font-size="14.00">absolute_error = 290131.477</text>
<text text-anchor="start" x="779" y="-22.8" font-family="Helvetica,sans-Serif" font-size="14.00">samples = 802</text>
<text text-anchor="start" x="759.5" y="-7.8" font-family="Helvetica,sans-Serif" font-size="14.00">value = 1246892.23</text>
</g>
<!-- 18&#45;&gt;19 -->
<g id="edge19" class="edge">
<title>18&#45;&gt;19</title>
<path fill="none" stroke="black" d="M987.41,-88.95C960.91,-78.47 931.82,-66.97 906.05,-56.78"/>
<polygon fill="black" stroke="black" points="907.3,-53.51 896.71,-53.09 904.72,-60.02 907.3,-53.51"/>
</g>
<!-- 20 -->
<g id="node21" class="node">
<title>20</title>
<path fill="#f4ccaf" stroke="black" d="M1171,-53C1171,-53 973,-53 973,-53 967,-53 961,-47 961,-41 961,-41 961,-12 961,-12 961,-6 967,0 973,0 973,0 1171,0 1171,0 1177,0 1183,-6 1183,-12 1183,-12 1183,-41 1183,-41 1183,-47 1177,-53 1171,-53"/>
<text text-anchor="start" x="969" y="-37.8" font-family="Helvetica,sans-Serif" font-size="14.00">absolute_error = 241697.544</text>
<text text-anchor="start" x="1019" y="-22.8" font-family="Helvetica,sans-Serif" font-size="14.00">samples = 465</text>
<text text-anchor="start" x="1004" y="-7.8" font-family="Helvetica,sans-Serif" font-size="14.00">value = 999348.55</text>
</g>
<!-- 18&#45;&gt;20 -->
<g id="edge20" class="edge">
<title>18&#45;&gt;20</title>
<path fill="none" stroke="black" d="M1071.35,-88.95C1071.44,-80.72 1071.53,-71.85 1071.62,-63.48"/>
<polygon fill="black" stroke="black" points="1075.12,-63.27 1071.73,-53.24 1068.12,-63.2 1075.12,-63.27"/>
</g>
<!-- 22 -->
<g id="node23" class="node">
<title>22</title>
<path fill="#f9e1d0" stroke="black" d="M1410,-157C1410,-157 1212,-157 1212,-157 1206,-157 1200,-151 1200,-145 1200,-145 1200,-101 1200,-101 1200,-95 1206,-89 1212,-89 1212,-89 1410,-89 1410,-89 1416,-89 1422,-95 1422,-101 1422,-101 1422,-145 1422,-145 1422,-151 1416,-157 1410,-157"/>
<text text-anchor="start" x="1262" y="-141.8" font-family="Helvetica,sans-Serif" font-size="14.00">Store ≤ 0.602</text>
<text text-anchor="start" x="1208" y="-126.8" font-family="Helvetica,sans-Serif" font-size="14.00">absolute_error = 435893.991</text>
<text text-anchor="start" x="1258" y="-111.8" font-family="Helvetica,sans-Serif" font-size="14.00">samples = 451</text>
<text text-anchor="start" x="1243" y="-96.8" font-family="Helvetica,sans-Serif" font-size="14.00">value = 747444.32</text>
</g>
<!-- 21&#45;&gt;22 -->
<g id="edge22" class="edge">
<title>21&#45;&gt;22</title>
<path fill="none" stroke="black" d="M1311,-192.88C1311,-184.78 1311,-175.98 1311,-167.47"/>
<polygon fill="black" stroke="black" points="1314.5,-167.3 1311,-157.3 1307.5,-167.3 1314.5,-167.3"/>
</g>
<!-- 25 -->
<g id="node26" class="node">
<title>25</title>
<path fill="#fdf4ee" stroke="black" d="M1650,-149.5C1650,-149.5 1452,-149.5 1452,-149.5 1446,-149.5 1440,-143.5 1440,-137.5 1440,-137.5 1440,-108.5 1440,-108.5 1440,-102.5 1446,-96.5 1452,-96.5 1452,-96.5 1650,-96.5 1650,-96.5 1656,-96.5 1662,-102.5 1662,-108.5 1662,-108.5 1662,-137.5 1662,-137.5 1662,-143.5 1656,-149.5 1650,-149.5"/>
<text text-anchor="start" x="1448" y="-134.3" font-family="Helvetica,sans-Serif" font-size="14.00">absolute_error = 366072.395</text>
<text text-anchor="start" x="1498" y="-119.3" font-family="Helvetica,sans-Serif" font-size="14.00">samples = 311</text>
<text text-anchor="start" x="1483" y="-104.3" font-family="Helvetica,sans-Serif" font-size="14.00">value = 520887.23</text>
</g>
<!-- 21&#45;&gt;25 -->
<g id="edge25" class="edge">
<title>21&#45;&gt;25</title>
<path fill="none" stroke="black" d="M1388.92,-192.88C1418.81,-180.18 1452.69,-165.78 1481.71,-153.45"/>
<polygon fill="black" stroke="black" points="1483.12,-156.65 1490.95,-149.52 1480.38,-150.21 1483.12,-156.65"/>
</g>
<!-- 23 -->
<g id="node24" class="node">
<title>23</title>
<path fill="#f9e1d0" stroke="black" d="M1404.5,-53C1404.5,-53 1215.5,-53 1215.5,-53 1209.5,-53 1203.5,-47 1203.5,-41 1203.5,-41 1203.5,-12 1203.5,-12 1203.5,-6 1209.5,0 1215.5,0 1215.5,0 1404.5,0 1404.5,0 1410.5,0 1416.5,-6 1416.5,-12 1416.5,-12 1416.5,-41 1416.5,-41 1416.5,-47 1410.5,-53 1404.5,-53"/>
<text text-anchor="start" x="1211.5" y="-37.8" font-family="Helvetica,sans-Serif" font-size="14.00">absolute_error = 389519.38</text>
<text text-anchor="start" x="1257" y="-22.8" font-family="Helvetica,sans-Serif" font-size="14.00">samples = 230</text>
<text text-anchor="start" x="1237.5" y="-7.8" font-family="Helvetica,sans-Serif" font-size="14.00">value = 746034.245</text>
</g>
<!-- 22&#45;&gt;23 -->
<g id="edge23" class="edge">
<title>22&#45;&gt;23</title>
<path fill="none" stroke="black" d="M1310.65,-88.95C1310.56,-80.72 1310.47,-71.85 1310.38,-63.48"/>
<polygon fill="black" stroke="black" points="1313.88,-63.2 1310.27,-53.24 1306.88,-63.27 1313.88,-63.2"/>
</g>
<!-- 24 -->
<g id="node25" class="node">
<title>24</title>
<path fill="#f1ba93" stroke="black" d="M1644,-53C1644,-53 1446,-53 1446,-53 1440,-53 1434,-47 1434,-41 1434,-41 1434,-12 1434,-12 1434,-6 1440,0 1446,0 1446,0 1644,0 1644,0 1650,0 1656,-6 1656,-12 1656,-12 1656,-41 1656,-41 1656,-47 1650,-53 1644,-53"/>
<text text-anchor="start" x="1442" y="-37.8" font-family="Helvetica,sans-Serif" font-size="14.00">absolute_error = 477964.933</text>
<text text-anchor="start" x="1492" y="-22.8" font-family="Helvetica,sans-Serif" font-size="14.00">samples = 221</text>
<text text-anchor="start" x="1472.5" y="-7.8" font-family="Helvetica,sans-Serif" font-size="14.00">value = 1213981.64</text>
</g>
<!-- 22&#45;&gt;24 -->
<g id="edge24" class="edge">
<title>22&#45;&gt;24</title>
<path fill="none" stroke="black" d="M1392.84,-88.95C1418.67,-78.52 1447.02,-67.07 1472.17,-56.91"/>
<polygon fill="black" stroke="black" points="1473.68,-60.08 1481.64,-53.09 1471.06,-53.59 1473.68,-60.08"/>
</g>
<!-- 27 -->
<g id="node28" class="node">
<title>27</title>
<path fill="#fef8f4" stroke="black" d="M1052,-565.5C1052,-565.5 854,-565.5 854,-565.5 848,-565.5 842,-559.5 842,-553.5 842,-553.5 842,-524.5 842,-524.5 842,-518.5 848,-512.5 854,-512.5 854,-512.5 1052,-512.5 1052,-512.5 1058,-512.5 1064,-518.5 1064,-524.5 1064,-524.5 1064,-553.5 1064,-553.5 1064,-559.5 1058,-565.5 1052,-565.5"/>
<text text-anchor="start" x="850" y="-550.3" font-family="Helvetica,sans-Serif" font-size="14.00">absolute_error = 128414.543</text>
<text text-anchor="start" x="900" y="-535.3" font-family="Helvetica,sans-Serif" font-size="14.00">samples = 207</text>
<text text-anchor="start" x="885" y="-520.3" font-family="Helvetica,sans-Serif" font-size="14.00">value = 469598.57</text>
</g>
<!-- 26&#45;&gt;27 -->
<g id="edge27" class="edge">
<title>26&#45;&gt;27</title>
<path fill="none" stroke="black" d="M953,-608.88C953,-598.33 953,-586.6 953,-575.85"/>
<polygon fill="black" stroke="black" points="956.5,-575.52 953,-565.52 949.5,-575.52 956.5,-575.52"/>
</g>
<!-- 28 -->
<g id="node29" class="node">
<title>28</title>
<path fill="#fae6d7" stroke="black" d="M1283.5,-565.5C1283.5,-565.5 1094.5,-565.5 1094.5,-565.5 1088.5,-565.5 1082.5,-559.5 1082.5,-553.5 1082.5,-553.5 1082.5,-524.5 1082.5,-524.5 1082.5,-518.5 1088.5,-512.5 1094.5,-512.5 1094.5,-512.5 1283.5,-512.5 1283.5,-512.5 1289.5,-512.5 1295.5,-518.5 1295.5,-524.5 1295.5,-524.5 1295.5,-553.5 1295.5,-553.5 1295.5,-559.5 1289.5,-565.5 1283.5,-565.5"/>
<text text-anchor="start" x="1090.5" y="-550.3" font-family="Helvetica,sans-Serif" font-size="14.00">absolute_error = 84234.314</text>
<text text-anchor="start" x="1136" y="-535.3" font-family="Helvetica,sans-Serif" font-size="14.00">samples = 216</text>
<text text-anchor="start" x="1121" y="-520.3" font-family="Helvetica,sans-Serif" font-size="14.00">value = 692278.47</text>
</g>
<!-- 26&#45;&gt;28 -->
<g id="edge28" class="edge">
<title>26&#45;&gt;28</title>
<path fill="none" stroke="black" d="M1029.62,-608.88C1058.89,-596.24 1092.04,-581.91 1120.49,-569.61"/>
<polygon fill="black" stroke="black" points="1122.16,-572.7 1129.95,-565.52 1119.39,-566.27 1122.16,-572.7"/>
</g>
</g>
</svg>
