<?xml version="1.0" encoding="UTF-8" standalone="no"?>
<!DOCTYPE svg PUBLIC "-//W3C//DTD SVG 1.1//EN"
 "http://www.w3.org/Graphics/SVG/1.1/DTD/svg11.dtd">
<!-- Generated by graphviz version 2.43.0 (0)
 -->
<!-- Title: Tree Pages: 1 -->
<svg width="1190pt" height="581pt"
 viewBox="0.00 0.00 1190.00 581.00" xmlns="http://www.w3.org/2000/svg" xmlns:xlink="http://www.w3.org/1999/xlink">
<g id="graph0" class="graph" transform="scale(1 1) rotate(0) translate(4 577)">
<title>Tree</title>
<polygon fill="white" stroke="transparent" points="-4,4 -4,-577 1186,-577 1186,4 -4,4"/>
<!-- 0 -->
<g id="node1" class="node">
<title>0</title>
<path fill="#f6d5be" stroke="black" d="M810,-573C810,-573 612,-573 612,-573 606,-573 600,-567 600,-561 600,-561 600,-517 600,-517 600,-511 606,-505 612,-505 612,-505 810,-505 810,-505 816,-505 822,-511 822,-517 822,-517 822,-561 822,-561 822,-567 816,-573 810,-573"/>
<text text-anchor="start" x="631" y="-557.8" font-family="Helvetica,sans-Serif" font-size="14.00">Unemployment ≤ 0.78</text>
<text text-anchor="start" x="608" y="-542.8" font-family="Helvetica,sans-Serif" font-size="14.00">absolute_error = 463011.279</text>
<text text-anchor="start" x="653.5" y="-527.8" font-family="Helvetica,sans-Serif" font-size="14.00">samples = 4348</text>
<text text-anchor="start" x="638.5" y="-512.8" font-family="Helvetica,sans-Serif" font-size="14.00">value = 940933.085</text>
</g>
<!-- 1 -->
<g id="node2" class="node">
<title>1</title>
<path fill="#f6d2b8" stroke="black" d="M690,-469C690,-469 492,-469 492,-469 486,-469 480,-463 480,-457 480,-457 480,-413 480,-413 480,-407 486,-401 492,-401 492,-401 690,-401 690,-401 696,-401 702,-407 702,-413 702,-413 702,-457 702,-457 702,-463 696,-469 690,-469"/>
<text text-anchor="start" x="542" y="-453.8" font-family="Helvetica,sans-Serif" font-size="14.00">Store ≤ 0.716</text>
<text text-anchor="start" x="488" y="-438.8" font-family="Helvetica,sans-Serif" font-size="14.00">absolute_error = 473321.303</text>
<text text-anchor="start" x="533.5" y="-423.8" font-family="Helvetica,sans-Serif" font-size="14.00">samples = 4007</text>
<text text-anchor="start" x="523" y="-408.8" font-family="Helvetica,sans-Serif" font-size="14.00">value = 976479.51</text>
</g>
<!-- 0&#45;&gt;1 -->
<g id="edge1" class="edge">
<title>0&#45;&gt;1</title>
<path fill="none" stroke="black" d="M672.04,-504.88C661.14,-495.62 649.18,-485.45 637.88,-475.85"/>
<polygon fill="black" stroke="black" points="640.06,-473.11 630.18,-469.3 635.53,-478.44 640.06,-473.11"/>
<text text-anchor="middle" x="632.2" y="-490.52" font-family="Helvetica,sans-Serif" font-size="14.00">True</text>
</g>
<!-- 16 -->
<g id="node17" class="node">
<title>16</title>
<path fill="#fcf3ec" stroke="black" d="M930,-461.5C930,-461.5 732,-461.5 732,-461.5 726,-461.5 720,-455.5 720,-449.5 720,-449.5 720,-420.5 720,-420.5 720,-414.5 726,-408.5 732,-408.5 732,-408.5 930,-408.5 930,-408.5 936,-408.5 942,-414.5 942,-420.5 942,-420.5 942,-449.5 942,-449.5 942,-455.5 936,-461.5 930,-461.5"/>
<text text-anchor="start" x="728" y="-446.3" font-family="Helvetica,sans-Serif" font-size="14.00">absolute_error = 228520.403</text>
<text text-anchor="start" x="778" y="-431.3" font-family="Helvetica,sans-Serif" font-size="14.00">samples = 341</text>
<text text-anchor="start" x="763" y="-416.3" font-family="Helvetica,sans-Serif" font-size="14.00">value = 630740.11</text>
</g>
<!-- 0&#45;&gt;16 -->
<g id="edge16" class="edge">
<title>0&#45;&gt;16</title>
<path fill="none" stroke="black" d="M749.96,-504.88C763.8,-493.12 779.36,-479.89 793.11,-468.2"/>
<polygon fill="black" stroke="black" points="795.62,-470.66 800.98,-461.52 791.09,-465.33 795.62,-470.66"/>
<text text-anchor="middle" x="798.96" y="-482.74" font-family="Helvetica,sans-Serif" font-size="14.00">False</text>
</g>
<!-- 2 -->
<g id="node3" class="node">
<title>2</title>
<path fill="#f3c4a3" stroke="black" d="M570,-365C570,-365 372,-365 372,-365 366,-365 360,-359 360,-353 360,-353 360,-309 360,-309 360,-303 366,-297 372,-297 372,-297 570,-297 570,-297 576,-297 582,-303 582,-309 582,-309 582,-353 582,-353 582,-359 576,-365 570,-365"/>
<text text-anchor="start" x="428.5" y="-349.8" font-family="Helvetica,sans-Serif" font-size="14.00">CPI ≤ 0.051</text>
<text text-anchor="start" x="368" y="-334.8" font-family="Helvetica,sans-Serif" font-size="14.00">absolute_error = 483390.599</text>
<text text-anchor="start" x="413.5" y="-319.8" font-family="Helvetica,sans-Serif" font-size="14.00">samples = 3005</text>
<text text-anchor="start" x="398.5" y="-304.8" font-family="Helvetica,sans-Serif" font-size="14.00">value = 1122356.53</text>
</g>
<!-- 1&#45;&gt;2 -->
<g id="edge2" class="edge">
<title>1&#45;&gt;2</title>
<path fill="none" stroke="black" d="M552.04,-400.88C541.14,-391.62 529.18,-381.45 517.88,-371.85"/>
<polygon fill="black" stroke="black" points="520.06,-369.11 510.18,-365.3 515.53,-374.44 520.06,-369.11"/>
</g>
<!-- 11 -->
<g id="node12" class="node">
<title>11</title>
<path fill="#fcf1e9" stroke="black" d="M805.5,-365C805.5,-365 616.5,-365 616.5,-365 610.5,-365 604.5,-359 604.5,-353 604.5,-353 604.5,-309 604.5,-309 604.5,-303 610.5,-297 616.5,-297 616.5,-297 805.5,-297 805.5,-297 811.5,-297 817.5,-303 817.5,-309 817.5,-309 817.5,-353 817.5,-353 817.5,-359 811.5,-365 805.5,-365"/>
<text text-anchor="start" x="662" y="-349.8" font-family="Helvetica,sans-Serif" font-size="14.00">Store ≤ 0.841</text>
<text text-anchor="start" x="612.5" y="-334.8" font-family="Helvetica,sans-Serif" font-size="14.00">absolute_error = 341273.37</text>
<text text-anchor="start" x="653.5" y="-319.8" font-family="Helvetica,sans-Serif" font-size="14.00">samples = 1002</text>
<text text-anchor="start" x="643" y="-304.8" font-family="Helvetica,sans-Serif" font-size="14.00">value = 652890.43</text>
</g>
<!-- 1&#45;&gt;11 -->
<g id="edge11" class="edge">
<title>1&#45;&gt;11</title>
<path fill="none" stroke="black" d="M629.96,-400.88C640.86,-391.62 652.82,-381.45 664.12,-371.85"/>
<polygon fill="black" stroke="black" points="666.47,-374.44 671.82,-365.3 661.94,-369.11 666.47,-374.44"/>
</g>
<!-- 3 -->
<g id="node4" class="node">
<title>3</title>
<path fill="#e58139" stroke="black" d="M330,-253.5C330,-253.5 132,-253.5 132,-253.5 126,-253.5 120,-247.5 120,-241.5 120,-241.5 120,-212.5 120,-212.5 120,-206.5 126,-200.5 132,-200.5 132,-200.5 330,-200.5 330,-200.5 336,-200.5 342,-206.5 342,-212.5 342,-212.5 342,-241.5 342,-241.5 342,-247.5 336,-253.5 330,-253.5"/>
<text text-anchor="start" x="128" y="-238.3" font-family="Helvetica,sans-Serif" font-size="14.00">absolute_error = 373186.007</text>
<text text-anchor="start" x="178" y="-223.3" font-family="Helvetica,sans-Serif" font-size="14.00">samples = 371</text>
<text text-anchor="start" x="163" y="-208.3" font-family="Helvetica,sans-Serif" font-size="14.00">value = 1830939.1</text>
</g>
<!-- 2&#45;&gt;3 -->
<g id="edge3" class="edge">
<title>2&#45;&gt;3</title>
<path fill="none" stroke="black" d="M393.08,-296.88C363.19,-284.18 329.31,-269.78 300.29,-257.45"/>
<polygon fill="black" stroke="black" points="301.62,-254.21 291.05,-253.52 298.88,-260.65 301.62,-254.21"/>
</g>
<!-- 4 -->
<g id="node5" class="node">
<title>4</title>
<path fill="#f4caac" stroke="black" d="M570,-261C570,-261 372,-261 372,-261 366,-261 360,-255 360,-249 360,-249 360,-205 360,-205 360,-199 366,-193 372,-193 372,-193 570,-193 570,-193 576,-193 582,-199 582,-205 582,-205 582,-249 582,-249 582,-255 576,-261 570,-261"/>
<text text-anchor="start" x="422" y="-245.8" font-family="Helvetica,sans-Serif" font-size="14.00">Store ≤ 0.375</text>
<text text-anchor="start" x="368" y="-230.8" font-family="Helvetica,sans-Serif" font-size="14.00">absolute_error = 458874.224</text>
<text text-anchor="start" x="413.5" y="-215.8" font-family="Helvetica,sans-Serif" font-size="14.00">samples = 2634</text>
<text text-anchor="start" x="398.5" y="-200.8" font-family="Helvetica,sans-Serif" font-size="14.00">value = 1060439.63</text>
</g>
<!-- 2&#45;&gt;4 -->
<g id="edge4" class="edge">
<title>2&#45;&gt;4</title>
<path fill="none" stroke="black" d="M471,-296.88C471,-288.78 471,-279.98 471,-271.47"/>
<polygon fill="black" stroke="black" points="474.5,-271.3 471,-261.3 467.5,-271.3 474.5,-271.3"/>
</g>
<!-- 5 -->
<g id="node6" class="node">
<title>5</title>
<path fill="#fae6d8" stroke="black" d="M450,-157C450,-157 252,-157 252,-157 246,-157 240,-151 240,-145 240,-145 240,-101 240,-101 240,-95 246,-89 252,-89 252,-89 450,-89 450,-89 456,-89 462,-95 462,-101 462,-101 462,-145 462,-145 462,-151 456,-157 450,-157"/>
<text text-anchor="start" x="302" y="-141.8" font-family="Helvetica,sans-Serif" font-size="14.00">Store ≤ 0.068</text>
<text text-anchor="start" x="248" y="-126.8" font-family="Helvetica,sans-Serif" font-size="14.00">absolute_error = 523268.865</text>
<text text-anchor="start" x="293.5" y="-111.8" font-family="Helvetica,sans-Serif" font-size="14.00">samples = 1279</text>
<text text-anchor="start" x="283" y="-96.8" font-family="Helvetica,sans-Serif" font-size="14.00">value = 761793.94</text>
</g>
<!-- 4&#45;&gt;5 -->
<g id="edge5" class="edge">
<title>4&#45;&gt;5</title>
<path fill="none" stroke="black" d="M432.04,-192.88C421.14,-183.62 409.18,-173.45 397.88,-163.85"/>
<polygon fill="black" stroke="black" points="400.06,-161.11 390.18,-157.3 395.53,-166.44 400.06,-161.11"/>
</g>
<!-- 8 -->
<g id="node9" class="node">
<title>8</title>
<path fill="#f2c29f" stroke="black" d="M690,-157C690,-157 492,-157 492,-157 486,-157 480,-151 480,-145 480,-145 480,-101 480,-101 480,-95 486,-89 492,-89 492,-89 690,-89 690,-89 696,-89 702,-95 702,-101 702,-101 702,-145 702,-145 702,-151 696,-157 690,-157"/>
<text text-anchor="start" x="553" y="-141.8" font-family="Helvetica,sans-Serif" font-size="14.00">CPI ≤ 0.81</text>
<text text-anchor="start" x="488" y="-126.8" font-family="Helvetica,sans-Serif" font-size="14.00">absolute_error = 364690.029</text>
<text text-anchor="start" x="533.5" y="-111.8" font-family="Helvetica,sans-Serif" font-size="14.00">samples = 1355</text>
<text text-anchor="start" x="518.5" y="-96.8" font-family="Helvetica,sans-Serif" font-size="14.00">value = 1147503.92</text>
</g>
<!-- 4&#45;&gt;8 -->
<g id="edge8" class="edge">
<title>4&#45;&gt;8</title>
<path fill="none" stroke="black" d="M509.96,-192.88C520.86,-183.62 532.82,-173.45 544.12,-163.85"/>
<polygon fill="black" stroke="black" points="546.47,-166.44 551.82,-157.3 541.94,-161.11 546.47,-166.44"/>
</g>
<!-- 6 -->
<g id="node7" class="node">
<title>6</title>
<path fill="#eb9d66" stroke="black" d="M210,-53C210,-53 12,-53 12,-53 6,-53 0,-47 0,-41 0,-41 0,-12 0,-12 0,-6 6,0 12,0 12,0 210,0 210,0 216,0 222,-6 222,-12 222,-12 222,-41 222,-41 222,-47 216,-53 210,-53"/>
<text text-anchor="start" x="8" y="-37.8" font-family="Helvetica,sans-Serif" font-size="14.00">absolute_error = 551235.504</text>
<text text-anchor="start" x="58" y="-22.8" font-family="Helvetica,sans-Serif" font-size="14.00">samples = 321</text>
<text text-anchor="start" x="38.5" y="-7.8" font-family="Helvetica,sans-Serif" font-size="14.00">value = 1530761.43</text>
</g>
<!-- 5&#45;&gt;6 -->
<g id="edge6" class="edge">
<title>5&#45;&gt;6</title>
<path fill="none" stroke="black" d="M267.06,-88.95C240.45,-78.47 211.24,-66.97 185.36,-56.78"/>
<polygon fill="black" stroke="black" points="186.57,-53.49 175.98,-53.09 184,-60.01 186.57,-53.49"/>
</g>
<!-- 7 -->
<g id="node8" class="node">
<title>7</title>
<path fill="#fcf2ea" stroke="black" d="M450,-53C450,-53 252,-53 252,-53 246,-53 240,-47 240,-41 240,-41 240,-12 240,-12 240,-6 246,0 252,0 252,0 450,0 450,0 456,0 462,-6 462,-12 462,-12 462,-41 462,-41 462,-47 456,-53 450,-53"/>
<text text-anchor="start" x="248" y="-37.8" font-family="Helvetica,sans-Serif" font-size="14.00">absolute_error = 435837.008</text>
<text text-anchor="start" x="298" y="-22.8" font-family="Helvetica,sans-Serif" font-size="14.00">samples = 958</text>
<text text-anchor="start" x="283" y="-7.8" font-family="Helvetica,sans-Serif" font-size="14.00">value = 640626.31</text>
</g>
<!-- 5&#45;&gt;7 -->
<g id="edge7" class="edge">
<title>5&#45;&gt;7</title>
<path fill="none" stroke="black" d="M351,-88.95C351,-80.72 351,-71.85 351,-63.48"/>
<polygon fill="black" stroke="black" points="354.5,-63.24 351,-53.24 347.5,-63.24 354.5,-63.24"/>
</g>
<!-- 9 -->
<g id="node10" class="node">
<title>9</title>
<path fill="#f2be99" stroke="black" d="M690,-53C690,-53 492,-53 492,-53 486,-53 480,-47 480,-41 480,-41 480,-12 480,-12 480,-6 486,0 492,0 492,0 690,0 690,0 696,0 702,-6 702,-12 702,-12 702,-41 702,-41 702,-47 696,-53 690,-53"/>
<text text-anchor="start" x="488" y="-37.8" font-family="Helvetica,sans-Serif" font-size="14.00">absolute_error = 288199.901</text>
<text text-anchor="start" x="538" y="-22.8" font-family="Helvetica,sans-Serif" font-size="14.00">samples = 906</text>
<text text-anchor="start" x="514" y="-7.8" font-family="Helvetica,sans-Serif" font-size="14.00">value = 1187632.615</text>
</g>
<!-- 8&#45;&gt;9 -->
<g id="edge9" class="edge">
<title>8&#45;&gt;9</title>
<path fill="none" stroke="black" d="M591,-88.95C591,-80.72 591,-71.85 591,-63.48"/>
<polygon fill="black" stroke="black" points="594.5,-63.24 591,-53.24 587.5,-63.24 594.5,-63.24"/>
</g>
<!-- 10 -->
<g id="node11" class="node">
<title>10</title>
<path fill="#fae8da" stroke="black" d="M930,-53C930,-53 732,-53 732,-53 726,-53 720,-47 720,-41 720,-41 720,-12 720,-12 720,-6 726,0 732,0 732,0 930,0 930,0 936,0 942,-6 942,-12 942,-12 942,-41 942,-41 942,-47 936,-53 930,-53"/>
<text text-anchor="start" x="728" y="-37.8" font-family="Helvetica,sans-Serif" font-size="14.00">absolute_error = 434918.874</text>
<text text-anchor="start" x="778" y="-22.8" font-family="Helvetica,sans-Serif" font-size="14.00">samples = 449</text>
<text text-anchor="start" x="763" y="-7.8" font-family="Helvetica,sans-Serif" font-size="14.00">value = 747444.32</text>
</g>
<!-- 8&#45;&gt;10 -->
<g id="edge10" class="edge">
<title>8&#45;&gt;10</title>
<path fill="none" stroke="black" d="M674.94,-88.95C701.55,-78.47 730.76,-66.97 756.64,-56.78"/>
<polygon fill="black" stroke="black" points="758,-60.01 766.02,-53.09 755.43,-53.49 758,-60.01"/>
</g>
<!-- 12 -->
<g id="node13" class="node">
<title>12</title>
<path fill="#ffffff" stroke="black" d="M810,-253.5C810,-253.5 612,-253.5 612,-253.5 606,-253.5 600,-247.5 600,-241.5 600,-241.5 600,-212.5 600,-212.5 600,-206.5 606,-200.5 612,-200.5 612,-200.5 810,-200.5 810,-200.5 816,-200.5 822,-206.5 822,-212.5 822,-212.5 822,-241.5 822,-241.5 822,-247.5 816,-253.5 810,-253.5"/>
<text text-anchor="start" x="608" y="-238.3" font-family="Helvetica,sans-Serif" font-size="14.00">absolute_error = 215208.039</text>
<text text-anchor="start" x="658" y="-223.3" font-family="Helvetica,sans-Serif" font-size="14.00">samples = 412</text>
<text text-anchor="start" x="643" y="-208.3" font-family="Helvetica,sans-Serif" font-size="14.00">value = 501862.41</text>
</g>
<!-- 11&#45;&gt;12 -->
<g id="edge12" class="edge">
<title>11&#45;&gt;12</title>
<path fill="none" stroke="black" d="M711,-296.88C711,-286.33 711,-274.6 711,-263.85"/>
<polygon fill="black" stroke="black" points="714.5,-263.52 711,-253.52 707.5,-263.52 714.5,-263.52"/>
</g>
<!-- 13 -->
<g id="node14" class="node">
<title>13</title>
<path fill="#f9e1d0" stroke="black" d="M1050,-261C1050,-261 852,-261 852,-261 846,-261 840,-255 840,-249 840,-249 840,-205 840,-205 840,-199 846,-193 852,-193 852,-193 1050,-193 1050,-193 1056,-193 1062,-199 1062,-205 1062,-205 1062,-249 1062,-249 1062,-255 1056,-261 1050,-261"/>
<text text-anchor="start" x="906.5" y="-245.8" font-family="Helvetica,sans-Serif" font-size="14.00">Store ≤ 0.92</text>
<text text-anchor="start" x="848" y="-230.8" font-family="Helvetica,sans-Serif" font-size="14.00">absolute_error = 360793.951</text>
<text text-anchor="start" x="898" y="-215.8" font-family="Helvetica,sans-Serif" font-size="14.00">samples = 590</text>
<text text-anchor="start" x="883" y="-200.8" font-family="Helvetica,sans-Serif" font-size="14.00">value = 817697.21</text>
</g>
<!-- 11&#45;&gt;13 -->
<g id="edge13" class="edge">
<title>11&#45;&gt;13</title>
<path fill="none" stroke="black" d="M788.92,-296.88C812.83,-286.72 839.29,-275.48 863.78,-265.07"/>
<polygon fill="black" stroke="black" points="865.23,-268.26 873.06,-261.12 862.49,-261.82 865.23,-268.26"/>
</g>
<!-- 14 -->
<g id="node15" class="node">
<title>14</title>
<path fill="#f0b78d" stroke="black" d="M930,-149.5C930,-149.5 732,-149.5 732,-149.5 726,-149.5 720,-143.5 720,-137.5 720,-137.5 720,-108.5 720,-108.5 720,-102.5 726,-96.5 732,-96.5 732,-96.5 930,-96.5 930,-96.5 936,-96.5 942,-102.5 942,-108.5 942,-108.5 942,-137.5 942,-137.5 942,-143.5 936,-149.5 930,-149.5"/>
<text text-anchor="start" x="728" y="-134.3" font-family="Helvetica,sans-Serif" font-size="14.00">absolute_error = 192638.798</text>
<text text-anchor="start" x="778" y="-119.3" font-family="Helvetica,sans-Serif" font-size="14.00">samples = 279</text>
<text text-anchor="start" x="758.5" y="-104.3" font-family="Helvetica,sans-Serif" font-size="14.00">value = 1264014.16</text>
</g>
<!-- 13&#45;&gt;14 -->
<g id="edge14" class="edge">
<title>13&#45;&gt;14</title>
<path fill="none" stroke="black" d="M912.04,-192.88C898.2,-181.12 882.64,-167.89 868.89,-156.2"/>
<polygon fill="black" stroke="black" points="870.91,-153.33 861.02,-149.52 866.38,-158.66 870.91,-153.33"/>
</g>
<!-- 15 -->
<g id="node16" class="node">
<title>15</title>
<path fill="#fdf8f3" stroke="black" d="M1170,-149.5C1170,-149.5 972,-149.5 972,-149.5 966,-149.5 960,-143.5 960,-137.5 960,-137.5 960,-108.5 960,-108.5 960,-102.5 966,-96.5 972,-96.5 972,-96.5 1170,-96.5 1170,-96.5 1176,-96.5 1182,-102.5 1182,-108.5 1182,-108.5 1182,-137.5 1182,-137.5 1182,-143.5 1176,-149.5 1170,-149.5"/>
<text text-anchor="start" x="968" y="-134.3" font-family="Helvetica,sans-Serif" font-size="14.00">absolute_error = 177372.046</text>
<text text-anchor="start" x="1018" y="-119.3" font-family="Helvetica,sans-Serif" font-size="14.00">samples = 311</text>
<text text-anchor="start" x="1003" y="-104.3" font-family="Helvetica,sans-Serif" font-size="14.00">value = 579499.93</text>
</g>
<!-- 13&#45;&gt;15 -->
<g id="edge15" class="edge">
<title>13&#45;&gt;15</title>
<path fill="none" stroke="black" d="M989.96,-192.88C1003.8,-181.12 1019.36,-167.89 1033.11,-156.2"/>
<polygon fill="black" stroke="black" points="1035.62,-158.66 1040.98,-149.52 1031.09,-153.33 1035.62,-158.66"/>
</g>
</g>
</svg>
